HIERARCHY
ROOT Hips
{
	OFFSET -0.001795 -0.223333 0.028219
	CHANNELS 6 Xposition Yposition Zposition Zrotation Yrotation Xrotation 
	JOINT LeftUpLeg
	{
		OFFSET 0.069520 -0.091406 -0.006815
		CHANNELS 3 Zrotation Yrotation Xrotation
		JOINT LeftLeg
		{
			OFFSET 0.034277 -0.375199 -0.004496
			CHANNELS 3 Zrotation Yrotation Xrotation
			JOINT LeftFoot
			{
				OFFSET -0.013596 -0.397961 -0.043693
				CHANNELS 3 Zrotation Yrotation Xrotation
				JOINT LeftToe
				{
					OFFSET 0.026358 -0.055791 0.119288
					CHANNELS 3 Zrotation Yrotation Xrotation
					End Site
					{
						OFFSET 0.000000 0.000000 0.000000
					}
				}
			}
		}
	}
	JOINT RightUpLeg
	{
		OFFSET -0.067670 -0.090522 -0.004320
		CHANNELS 3 Zrotation Yrotation Xrotation
		JOINT RightLeg
		{
			OFFSET -0.038290 -0.382569 -0.008850
			CHANNELS 3 Zrotation Yrotation Xrotation
			JOINT RightFoot
			{
				OFFSET 0.015774 -0.398415 -0.042312
				CHANNELS 3 Zrotation Yrotation Xrotation
				JOINT RightToe
				{
					OFFSET -0.025372 -0.048144 0.123348
					CHANNELS 3 Zrotation Yrotation Xrotation
					End Site
					{
						OFFSET 0.000000 0.000000 0.000000
					}
				}
			}
		}
	}
	JOINT Spine
	{
		OFFSET -0.002533 0.108963 -0.026696
		CHANNELS 3 Zrotation Yrotation Xrotation
		JOINT Spine1
		{
			OFFSET 0.005487 0.135180 0.001092
			CHANNELS 3 Zrotation Yrotation Xrotation
			JOINT Spine2
			{
				OFFSET 0.001457 0.052922 0.025425
				CHANNELS 3 Zrotation Yrotation Xrotation
				JOINT Neck
				{
					OFFSET -0.002778 0.213870 -0.042857
					CHANNELS 3 Zrotation Yrotation Xrotation
					JOINT Head
					{
						OFFSET 0.005152 0.064970 0.051349
						CHANNELS 3 Zrotation Yrotation Xrotation
						End Site
						{
							OFFSET 0.000000 0.000000 0.000000
						}
					}
				}
				JOINT LeftShoulder
				{
					OFFSET 0.078845 0.121749 -0.034090
					CHANNELS 3 Zrotation Yrotation Xrotation
					JOINT LeftArm
					{
						OFFSET 0.090977 0.030469 -0.008868
						CHANNELS 3 Zrotation Yrotation Xrotation
						JOINT LeftForeArm
						{
							OFFSET 0.259612 -0.012772 -0.027456
							CHANNELS 3 Zrotation Yrotation Xrotation
							JOINT LeftHand
							{
								OFFSET 0.249234 0.008986 -0.001171
								CHANNELS 3 Zrotation Yrotation Xrotation
								End Site
								{
									OFFSET 0.000000 0.000000 0.000000
								}
							}
						}
					}
				}
				JOINT RightShoulder
				{
					OFFSET -0.081759 0.118833 -0.038615
					CHANNELS 3 Zrotation Yrotation Xrotation
					JOINT RightArm
					{
						OFFSET -0.096012 0.032551 -0.009143
						CHANNELS 3 Zrotation Yrotation Xrotation
						JOINT RightForeArm
						{
							OFFSET -0.253742 -0.013329 -0.021401
							CHANNELS 3 Zrotation Yrotation Xrotation
							JOINT RightHand
							{
								OFFSET -0.255298 0.007772 -0.005559
								CHANNELS 3 Zrotation Yrotation Xrotation
								End Site
								{
									OFFSET 0.000000 0.000000 0.000000
								}
							}
						}
					}
				}
			}
		}
	}
}
MOTION
Frames: 8
Frame Time: 0.050000
-0.047745 0.523051 -0.043448 -6.113984 -13.250031 8.245402 9.644590 0.062832 -4.389323 7.101250 -1.634652 92.065128 -13.904338 -12.897575 20.517325 0.000000 0.000000 0.000000 2.309306 2.671238 -20.043348 9.764100 4.475040 106.261788 1.514340 -2.076887 13.694214 0.000000 0.000000 0.000000 7.739627 -0.668249 4.416961 -2.512508 1.230090 0.049319 -3.213417 5.156118 -2.813196 8.356578 -8.254471 8.833903 0.000000 0.000000 0.000000 -28.181921 3.335523 -4.999193 -39.730601 2.841653 -4.977275 -11.072281 -20.994548 2.797950 0.000000 0.000000 0.000000 30.830975 -12.771238 -12.196458 39.701903 -13.031436 -6.998200 -2.056532 25.650158 0.305539 0.000000 0.000000 0.000000 
-0.048119 0.521489 -0.043333 -5.618024 -13.355694 6.837752 9.150796 0.059317 -5.558329 7.340944 -2.143530 94.832064 -14.519839 -13.292516 21.201509 0.000000 0.000000 0.000000 2.572203 2.739880 -20.166095 9.380471 5.377344 108.851286 3.488342 1.675084 13.782155 0.000000 0.000000 0.000000 7.525117 -0.711688 5.315560 -2.495337 1.215214 -0.031876 -2.722967 5.230981 -2.470331 7.766492 -7.708718 8.710113 0.000000 0.000000 0.000000 -28.415322 2.624451 -4.541169 -40.316597 1.816448 -4.786952 -10.715960 -20.099197 2.614152 0.000000 0.000000 0.000000 30.656797 -12.063076 -11.701284 41.455220 -12.542948 -7.239664 -1.709780 24.299111 0.355774 0.000000 0.000000 0.000000 
-0.048662 0.521241 -0.043436 -5.111122 -12.596046 6.320881 8.892933 0.025101 -6.798379 7.411187 -3.094918 96.170248 -15.371946 -13.797444 22.329419 0.000000 0.000000 0.000000 2.632733 2.704801 -20.000606 8.951387 5.382114 109.868373 4.547997 3.370681 14.423713 0.000000 0.000000 0.000000 7.406482 -0.684163 5.172596 -2.555389 1.248080 0.132148 -2.631442 5.600539 -2.096321 7.998845 -7.746234 7.468044 0.000000 0.000000 0.000000 -27.697877 2.196668 -4.400358 -40.767514 1.086272 -4.580934 -11.994325 -20.410059 2.863028 0.000000 0.000000 0.000000 30.700299 -12.237216 -11.574654 42.526303 -12.525715 -7.537197 -1.831323 22.452282 0.344404 0.000000 0.000000 0.000000 
-0.049319 0.520429 -0.043524 -4.642948 -12.192085 5.468678 8.985318 0.038083 -7.833492 7.102211 -3.294358 97.677708 -15.727181 -13.168327 24.014263 0.000000 0.000000 0.000000 2.692001 2.679519 -19.832254 8.776483 5.295089 110.964125 4.943207 3.826010 15.059974 0.000000 0.000000 0.000000 7.255852 -0.701081 5.611824 -2.360685 1.150408 0.106490 -2.907473 6.355978 -1.720908 8.606676 -8.159431 6.380252 0.000000 0.000000 0.000000 -27.097018 1.805947 -4.404714 -41.256492 0.464428 -4.386634 -12.678695 -21.022768 3.040634 0.000000 0.000000 0.000000 30.172798 -12.206976 -11.046739 43.459364 -12.134178 -7.716447 -1.575339 21.633127 0.424262 0.000000 0.000000 0.000000 
-0.050035 0.520139 -0.043199 -4.180463 -11.501925 4.719893 8.861095 0.021679 -9.141830 6.943651 -3.988877 99.177658 -16.282499 -13.307366 24.997487 0.000000 0.000000 0.000000 2.624529 2.585115 -19.394193 8.083260 5.833025 111.242604 5.666452 4.940782 15.437336 0.000000 0.000000 0.000000 7.204484 -0.722722 6.000792 -2.783513 1.333529 -0.227950 -2.773980 6.973585 -1.239786 8.993946 -8.328538 5.261147 0.000000 0.000000 0.000000 -26.528463 1.196420 -4.229624 -41.404598 0.329972 -4.320667 -13.319673 -22.075695 3.287391 0.000000 0.000000 0.000000 29.612662 -12.553670 -10.813226 43.890514 -11.775751 -7.788044 -1.164624 20.476575 0.507269 0.000000 0.000000 0.000000 
-0.050725 0.519760 -0.042293 -3.894528 -10.760181 4.139322 9.038185 0.033547 -10.249334 6.815211 -4.739926 100.217586 -16.330193 -12.780667 25.920400 0.000000 0.000000 0.000000 2.442726 2.531991 -19.284897 7.805108 5.507735 111.425121 6.004890 4.951079 16.616996 0.000000 0.000000 0.000000 7.294910 -0.704404 5.841557 -2.761956 1.335070 0.062129 -2.948957 7.482015 -1.059945 9.116930 -8.518571 5.291001 0.000000 0.000000 0.000000 -26.464535 1.023169 -4.422376 -41.690387 -0.093603 -4.150725 -13.456805 -23.078612 3.426320 0.000000 0.000000 0.000000 29.041833 -12.609769 -10.393655 44.148106 -11.704783 -7.895950 -1.000072 20.484001 0.571963 0.000000 0.000000 0.000000 
-0.051121 0.520551 -0.040908 -3.602440 -10.363831 3.768517 8.838159 0.009029 -11.024301 6.798674 -5.226846 100.788925 -16.914788 -13.361730 26.299529 0.000000 0.000000 0.000000 2.304658 2.471726 -19.062225 7.553292 5.524311 111.208235 5.848652 4.846950 16.187351 0.000000 0.000000 0.000000 7.391592 -0.681676 5.611069 -3.328426 1.604381 0.017201 -2.870417 7.827932 -0.724758 9.216224 -8.538649 4.832794 0.000000 0.000000 0.000000 -26.097654 1.027846 -4.518669 -41.595949 0.315086 -4.259042 -14.048211 -24.088406 3.681657 0.000000 0.000000 0.000000 28.462008 -12.640963 -10.104236 44.245914 -11.514326 -7.908412 -0.845429 20.564191 0.622227 0.000000 0.000000 0.000000 
-0.051068 0.520777 -0.039435 -3.401526 -9.937177 3.361856 8.550609 -0.029050 -11.697505 6.762421 -5.759646 101.570626 -16.938531 -13.266462 26.498421 0.000000 0.000000 0.000000 1.913157 2.400180 -18.970090 7.529585 5.066891 111.283322 5.764189 4.592553 16.359991 0.000000 0.000000 0.000000 7.477251 -0.674087 5.555826 -3.756425 1.798537 -0.213732 -2.633263 8.082966 -0.765419 8.947829 -8.034027 3.691200 0.000000 0.000000 0.000000 -25.623559 1.089579 -4.602800 -41.950609 1.055459 -4.512756 -13.784491 -24.850483 3.719302 0.000000 0.000000 0.000000 27.529996 -12.675724 -9.791816 44.131731 -11.948960 -8.037747 -0.928151 21.852661 0.667709 0.000000 0.000000 0.000000 
